<mxfile>
    <diagram id="43kBRRlVfvzEp9xdl2nK" name="操作系统">
        <mxGraphModel dx="2590" dy="1160" grid="1" gridSize="10" guides="1" tooltips="1" connect="1" arrows="1" fold="1" page="1" pageScale="1" pageWidth="850" pageHeight="1100" math="0" shadow="0">
            <root>
                <mxCell id="0"/>
                <mxCell id="1" parent="0"/>
                <mxCell id="4" style="edgeStyle=orthogonalEdgeStyle;rounded=0;orthogonalLoop=1;jettySize=auto;html=1;entryX=0;entryY=0.5;entryDx=0;entryDy=0;" parent="1" source="2" target="3" edge="1">
                    <mxGeometry relative="1" as="geometry"/>
                </mxCell>
                <mxCell id="2" value="计算机与网络基础知识" style="rounded=1;whiteSpace=wrap;html=1;" parent="1" vertex="1">
                    <mxGeometry x="20" y="440" width="140" height="60" as="geometry"/>
                </mxCell>
                <mxCell id="7" style="edgeStyle=orthogonalEdgeStyle;rounded=0;orthogonalLoop=1;jettySize=auto;html=1;entryX=0;entryY=0.5;entryDx=0;entryDy=0;" parent="1" source="3" target="6" edge="1">
                    <mxGeometry relative="1" as="geometry"/>
                </mxCell>
                <mxCell id="3" value="操作系统" style="rounded=1;whiteSpace=wrap;html=1;" parent="1" vertex="1">
                    <mxGeometry x="240" y="220" width="120" height="60" as="geometry"/>
                </mxCell>
                <mxCell id="6" value="计算机系统的硬件资源包括中央处理器，存储器和输入输出等物理设备" style="rounded=1;whiteSpace=wrap;html=1;" parent="1" vertex="1">
                    <mxGeometry x="450" y="150" width="260" height="50" as="geometry"/>
                </mxCell>
            </root>
        </mxGraphModel>
    </diagram>
    <diagram id="W0j9xq50oq3G5UpJWxl0" name="数据库系统">
        <mxGraphModel dx="2590" dy="1160" grid="1" gridSize="10" guides="1" tooltips="1" connect="1" arrows="1" fold="1" page="1" pageScale="1" pageWidth="850" pageHeight="1100" math="0" shadow="0">
            <root>
                <mxCell id="p5f3TRAc3N_nxHfdzfmo-0"/>
                <mxCell id="p5f3TRAc3N_nxHfdzfmo-1" parent="p5f3TRAc3N_nxHfdzfmo-0"/>
            </root>
        </mxGraphModel>
    </diagram>
    <diagram id="LuN_gD5XTN7nXzI5oZwW" name="计算机网络">
        <mxGraphModel dx="2590" dy="1160" grid="1" gridSize="10" guides="1" tooltips="1" connect="1" arrows="1" fold="1" page="1" pageScale="1" pageWidth="850" pageHeight="1100" math="0" shadow="0">
            <root>
                <mxCell id="O9w2cIYGwniw_YhXDrEX-0"/>
                <mxCell id="O9w2cIYGwniw_YhXDrEX-1" parent="O9w2cIYGwniw_YhXDrEX-0"/>
            </root>
        </mxGraphModel>
    </diagram>
    <diagram id="oBBUaz3eY6Ua4vzj9eGV" name="多媒体技术">
        <mxGraphModel dx="2590" dy="1160" grid="1" gridSize="10" guides="1" tooltips="1" connect="1" arrows="1" fold="1" page="1" pageScale="1" pageWidth="850" pageHeight="1100" math="0" shadow="0">
            <root>
                <mxCell id="XoS0M_sBDMm-habru0V4-0"/>
                <mxCell id="XoS0M_sBDMm-habru0V4-1" parent="XoS0M_sBDMm-habru0V4-0"/>
            </root>
        </mxGraphModel>
    </diagram>
    <diagram id="896qjcPpaGWzZalk9aGw" name="系统性能">
        <mxGraphModel dx="2431" dy="1160" grid="1" gridSize="10" guides="1" tooltips="1" connect="1" arrows="1" fold="1" page="1" pageScale="1" pageWidth="850" pageHeight="1100" math="0" shadow="0">
            <root>
                <mxCell id="VQc6Z3BihJPACjUVe_HK-0"/>
                <mxCell id="VQc6Z3BihJPACjUVe_HK-1" parent="VQc6Z3BihJPACjUVe_HK-0"/>
                <mxCell id="VQc6Z3BihJPACjUVe_HK-9" style="edgeStyle=orthogonalEdgeStyle;rounded=0;orthogonalLoop=1;jettySize=auto;html=1;entryX=0;entryY=0.5;entryDx=0;entryDy=0;" edge="1" parent="VQc6Z3BihJPACjUVe_HK-1" source="VQc6Z3BihJPACjUVe_HK-3" target="VQc6Z3BihJPACjUVe_HK-8">
                    <mxGeometry relative="1" as="geometry"/>
                </mxCell>
                <mxCell id="VQc6Z3BihJPACjUVe_HK-10" style="edgeStyle=orthogonalEdgeStyle;rounded=0;orthogonalLoop=1;jettySize=auto;html=1;entryX=0;entryY=0.5;entryDx=0;entryDy=0;" edge="1" parent="VQc6Z3BihJPACjUVe_HK-1" source="VQc6Z3BihJPACjUVe_HK-3" target="VQc6Z3BihJPACjUVe_HK-7">
                    <mxGeometry relative="1" as="geometry"/>
                </mxCell>
                <mxCell id="VQc6Z3BihJPACjUVe_HK-11" style="edgeStyle=orthogonalEdgeStyle;rounded=0;orthogonalLoop=1;jettySize=auto;html=1;" edge="1" parent="VQc6Z3BihJPACjUVe_HK-1" source="VQc6Z3BihJPACjUVe_HK-3" target="VQc6Z3BihJPACjUVe_HK-6">
                    <mxGeometry relative="1" as="geometry"/>
                </mxCell>
                <mxCell id="VQc6Z3BihJPACjUVe_HK-12" style="edgeStyle=orthogonalEdgeStyle;rounded=0;orthogonalLoop=1;jettySize=auto;html=1;entryX=0;entryY=0.5;entryDx=0;entryDy=0;" edge="1" parent="VQc6Z3BihJPACjUVe_HK-1" source="VQc6Z3BihJPACjUVe_HK-3" target="VQc6Z3BihJPACjUVe_HK-5">
                    <mxGeometry relative="1" as="geometry"/>
                </mxCell>
                <mxCell id="VQc6Z3BihJPACjUVe_HK-3" value="系统性能" style="rounded=1;whiteSpace=wrap;html=1;" vertex="1" parent="VQc6Z3BihJPACjUVe_HK-1">
                    <mxGeometry x="20" y="470" width="120" height="60" as="geometry"/>
                </mxCell>
                <mxCell id="VQc6Z3BihJPACjUVe_HK-5" value="性能评估" style="rounded=1;whiteSpace=wrap;html=1;" vertex="1" parent="VQc6Z3BihJPACjUVe_HK-1">
                    <mxGeometry x="230" y="650" width="120" height="60" as="geometry"/>
                </mxCell>
                <mxCell id="VQc6Z3BihJPACjUVe_HK-6" value="性能设计" style="rounded=1;whiteSpace=wrap;html=1;" vertex="1" parent="VQc6Z3BihJPACjUVe_HK-1">
                    <mxGeometry x="230" y="520" width="120" height="60" as="geometry"/>
                </mxCell>
                <mxCell id="VQc6Z3BihJPACjUVe_HK-7" value="性能计算" style="rounded=1;whiteSpace=wrap;html=1;" vertex="1" parent="VQc6Z3BihJPACjUVe_HK-1">
                    <mxGeometry x="230" y="410" width="120" height="60" as="geometry"/>
                </mxCell>
                <mxCell id="VQc6Z3BihJPACjUVe_HK-8" value="性能指标" style="rounded=1;whiteSpace=wrap;html=1;" vertex="1" parent="VQc6Z3BihJPACjUVe_HK-1">
                    <mxGeometry x="230" y="290" width="120" height="60" as="geometry"/>
                </mxCell>
            </root>
        </mxGraphModel>
    </diagram>
</mxfile>